<mxfile host="app.diagrams.net" modified="2024-04-08T10:21:13.828Z" agent="Mozilla/5.0 (Windows NT 10.0; Win64; x64) AppleWebKit/537.36 (KHTML, like Gecko) Chrome/123.0.0.0 Safari/537.36 Edg/123.0.0.0" version="24.2.1" etag="OdGkeBdQg2pGzfbDOY0r" type="github">
  <diagram name="Page-1" id="lKJM_U8ByUH-FfY6Vc0z">
    <mxGraphModel>
      <root>
        <mxCell id="0" />
        <mxCell id="1" parent="0" />
      </root>
    </mxGraphModel>
  </diagram>
</mxfile>
